<svg id="Capa_1" enable-background="new 0 0 512 512" height="512" viewBox="0 0 512 512" width="512" xmlns="http://www.w3.org/2000/svg"><g><g><g><g><path d="m316.501 365.15c-.867.016-1.599-.62-1.717-1.48-1.06-7.714-2.96-15.408-5.7-23.01-7.66-21.251-20.846-38.958-37.51-50.561-.197-.137-.336-.34-.391-.573l-9.373-39.309c-1.854-7.777-9.427-13.043-17.282-11.556-8.387 1.588-13.657 9.829-11.7 18.036l10.95 45.921c.941 3.948 3.458 7.338 6.965 9.383 13.233 7.715 24.315 21.832 30.407 38.73 2.836 7.868 4.472 16.083 4.841 24.066.029.636-.261 1.239-.758 1.637-12.116 9.678-19.786 24.665-19.49 41.333l.184 10.389c.502 28.31 23.319 51.624 51.633 51.659 28.972.036 52.293-23.785 51.782-52.625l-.2-11.256c-.507-28.563-24.079-51.303-52.641-50.784zm23.15 62.566c.215 12.137-9.483 22.185-21.62 22.4s-22.185-9.483-22.4-21.62l-.2-11.256c-.215-12.137 9.483-22.185 21.62-22.4s22.185 9.483 22.4 21.62z" fill="#ac80dd"/></g><g><g><path d="m316.501 365.15c-.867.015-1.599-.621-1.717-1.48-1.06-7.714-2.96-15.407-5.7-23.01-7.66-21.251-20.846-38.958-37.51-50.561-.197-.137-.336-.34-.391-.573l-9.373-39.309c-1.842-7.726-9.328-12.987-17.145-11.582-3.853.693-7.048 2.794-9.211 5.648 6.74.115 12.743 4.999 14.366 11.805l9.066 38.021c.254 1.063.891 1.987 1.779 2.625 16.153 11.609 28.935 29.007 36.429 49.796 2.743 7.61 4.644 15.311 5.703 23.033.117.856.852 1.473 1.716 1.457 28.561-.518 52.132 22.221 52.638 50.783l.2 11.256c.325 18.317-8.972 34.599-23.217 44.04 20.776-7.009 35.616-26.849 35.207-49.913l-.199-11.232c-.507-28.563-24.075-51.31-52.641-50.804z" fill="#9d66d5"/></g></g></g><g><path d="m248.843 368.02c-1.075-42.361-7.278-82.914-17.549-114.433-2.54-7.797-10.919-12.059-18.717-9.516-7.796 2.54-12.057 10.92-9.516 18.717 5.403 16.58 9.577 36.035 12.347 57.083.098.744-.634 1.315-1.338 1.056-6.411-2.36-13.392-3.53-20.683-3.204-28.53 1.273-50.737 25.357-50.737 53.916v78.999c0 29.157 23.153 53.488 52.307 53.933 29.674.453 53.959-23.554 53.959-53.127zm-29.621 83.424c0 12.924-10.515 23.439-23.438 23.439s-23.438-10.515-23.438-23.439v-80.642c0-12.924 10.515-23.438 23.438-23.438s23.438 10.515 23.438 23.438z" fill="#ac80dd"/></g><g><g><path d="m248.843 368.02c-1.075-42.361-7.278-82.914-17.549-114.433-2.199-6.75-8.775-10.841-15.561-10.171 1.193 1.419 2.146 3.079 2.755 4.95 10.271 31.519 16.474 72.073 17.549 114.433l.073 83.423c0 29.572-24.285 53.58-53.959 53.127-4.271-.065-8.408-.656-12.368-1.687 7.444 4.266 16.012 6.768 25.173 6.908 29.674.453 53.959-23.554 53.959-53.127z" fill="#9d66d5"/></g></g><g><path d="m260.238 265.461-24.572 23.667c-1.533 1.477-3.96 1.477-5.493 0l-24.573-23.667c-2.325-2.239-3.638-5.327-3.638-8.555v-245.498c0-3.5 4.189-5.298 6.727-2.888l31.394 29.817c15.191 14.428 23.793 34.461 23.793 55.412v163.157c0 3.228-1.313 6.316-3.638 8.555z" fill="#efecef"/></g><g><path d="m240.083 38.337-31.394-29.817c-2.537-2.41-6.727-.611-6.727 2.888v7.151l26.035 24.727c15.191 14.428 23.793 34.461 23.793 55.412v174.9l8.448-8.137c2.325-2.239 3.638-5.327 3.638-8.555v-163.157c0-20.951-8.601-40.984-23.793-55.412z" fill="#e2dfe2"/></g><g><path d="m230.173 289.129c1.533 1.477 3.96 1.477 5.493 0l24.572-23.667c2.325-2.239 3.638-5.327 3.638-8.555v-17.426l-16.832-95.221c-6.128-43.631-16.224-97-38.355-135.74-2.537-2.41-6.727-.611-6.727 2.888v245.498c0 3.227 1.313 6.316 3.638 8.555z" fill="#efecef"/></g><g><path d="m250.719 142.574c-5.002-36.842-13.824-73.064-26.323-108.08l-5.971-16.727-9.735-9.246c-2.432-2.31-6.37-.749-6.695 2.464 1.185 1.126 2.089 2.515 2.639 4.054l5.135 14.385c12.499 35.016 21.321 71.238 26.324 108.08l13.158 96.907v17.426c0 3.227-1.313 6.316-3.638 8.555l-22.637 21.803 7.199 6.933c1.533 1.477 3.96 1.477 5.493 0l24.573-23.667c2.325-2.239 3.638-5.327 3.638-8.555v-17.426z" fill="#e2dfe2"/></g></g><g><path d="m288.008 417.372.2 11.256c.139 7.852 3.334 15.187 8.996 20.652 5.535 5.342 12.769 8.264 20.425 8.264.177 0 .356-.001.534-.004 16.228-.288 29.199-13.725 28.911-29.954l-.2-11.256c-.139-7.852-3.334-15.187-8.996-20.652s-13.067-8.377-20.958-8.259c-16.229.285-29.199 13.723-28.912 29.953zm29.174-15.11c.088-.002.176-.002.264-.002 3.79 0 7.375 1.45 10.12 4.099 2.809 2.711 4.393 6.345 4.462 10.233l.2 11.256c.142 8.044-6.286 14.704-14.329 14.846-3.873.088-7.575-1.386-10.384-4.097s-4.393-6.344-4.462-10.232l-.2-11.256c-.142-8.044 6.286-14.705 14.329-14.847z"/><path d="m376.564 415.802c-.279-15.797-6.696-30.539-18.067-41.508-10.163-9.804-23.193-15.545-37.123-16.449-.334-1.853-.713-3.706-1.136-5.545-.917-3.996-4.902-6.488-8.896-5.574-3.996.918-6.492 4.901-5.574 8.897.69 3.008 1.249 6.055 1.662 9.066.634 4.578 4.601 7.977 9.207 7.885 11.829-.204 23.037 4.191 31.552 12.407s13.321 19.255 13.53 31.086l.2 11.256c.213 11.964-4.307 23.267-12.726 31.826-8.403 8.542-19.611 13.244-31.568 13.244-.018 0-.039 0-.056 0-23.95-.03-43.787-19.933-44.22-44.368l-.185-10.389c-.246-13.825 5.841-26.728 16.698-35.4 2.359-1.883 3.684-4.794 3.544-7.783-.41-8.841-2.185-17.669-5.274-26.239-6.672-18.511-18.937-34.048-33.652-42.627-1.745-1.017-3.014-2.727-3.482-4.69l-3.147-13.197 12.412-11.955 3.694 15.491c.477 2.013 1.675 3.774 3.374 4.957 11.16 7.77 20.814 18.745 27.918 31.739 1.349 2.467 3.895 3.864 6.521 3.864 1.203 0 2.424-.293 3.554-.912 3.598-1.967 4.919-6.477 2.953-10.075-7.773-14.216-18.26-26.388-30.434-35.349-.319-.794-6.544-28.553-6.544-28.553v-17.426-145.732c0-22.879-9.514-45.038-26.104-60.794-9.468-8.992-23.034-21.877-31.395-29.818-3.31-3.143-8.159-4.01-12.356-2.21-4.196 1.802-6.906 5.916-6.906 10.481v82.556c0 4.1 3.323 7.424 7.424 7.424 4.1 0 7.424-3.324 7.424-7.424v-74.544l2.643 2.509 5.375 15.06c12.302 34.464 21.036 70.323 25.959 106.583l13.09 96.409v16.924c0 1.204-.497 2.373-1.365 3.208l-22.169 21.353-22.169-21.353c-.867-.835-1.364-2.004-1.364-3.208v-130.462c0-4.1-3.323-7.424-7.424-7.424-4.1 0-7.424 3.324-7.424 7.424v130.464c.021 2.797.722 5.511 1.464 8.18 4.424 13.58 8.003 29.065 10.665 46.142-4.462-.819-9.018-1.126-13.611-.923-32.428 1.447-57.83 28.388-57.83 61.332v75.875c0 4.1 3.323 7.424 7.424 7.424 4.1 0 7.424-3.324 7.424-7.424v-75.875c0-24.983 19.171-45.408 43.644-46.5 6.097-.27 12.084.655 17.787 2.754 2.754 1.015 5.89.507 8.18-1.326 2.321-1.856 3.473-4.724 3.084-7.665-1.479-11.244-3.333-21.904-5.533-31.928l7.787 7.501c2.215 2.133 5.056 3.2 7.898 3.199.516 0 1.03-.048 1.542-.118 3.941 21.977 6.334 46.151 6.957 70.56l.073 83.327c0 12.319-4.85 23.879-13.656 32.552-8.802 8.669-20.39 13.327-32.766 13.152-15.243-.232-29.325-8.201-37.668-21.316-2.201-3.46-6.791-4.479-10.248-2.279-3.46 2.201-4.48 6.789-2.279 10.249 11.034 17.343 29.714 27.883 49.969 28.191.318.005.633.007.95.007 15.981 0 31.028-6.167 42.461-17.426 11.662-11.486 18.085-26.803 18.085-43.138l-.073-83.423c0-.06-.001-.121-.002-.181-.388-15.291-1.458-30.502-3.147-45.19 9.037 7.258 16.523 18.055 21.047 30.605 2.238 6.207 3.686 12.8 4.234 19.227-13.104 11.516-20.39 27.913-20.079 45.423l.185 10.389c.575 32.466 27.063 58.912 59.047 58.951h.074c15.969 0 30.937-6.277 42.152-17.679 11.238-11.424 17.271-26.518 16.987-42.501zm-140.931-371.42c13.235 12.922 20.82 30.852 20.82 49.367v36.816c-4.58-29.209-11.557-58.102-20.82-86.183z"/><path d="m226.645 451.443v-80.642c0-17.017-13.845-30.862-30.862-30.862s-30.862 13.845-30.862 30.862v80.642c0 17.017 13.845 30.862 30.862 30.862s30.862-13.844 30.862-30.862zm-46.877 0v-80.642c0-8.831 7.184-16.015 16.015-16.015s16.015 7.184 16.015 16.015v80.642c0 8.831-7.184 16.015-16.015 16.015s-16.015-7.184-16.015-16.015z"/><ellipse cx="232.919" cy="243.336" rx="9.186" ry="9.186" transform="matrix(.383 -.924 .924 .383 -81.028 365.405)"/></g></g></svg>