<svg height="512" viewBox="0 0 128 128" width="512" xmlns="http://www.w3.org/2000/svg"><g><g><path d="m90.625 47.25v23.75l-26.75 39.018-24-23.268 6.5-19.75-9-32.25 24.625-16.768z" fill="#b25f4c"/><path d="m62 17.982-15.625 49.018 17.5 43.018 26.75-62.768z" fill="#c5715d"/><path d="m37.375 34.75 53.25 36.25v-23.75l-28.625-29.268z" fill="#d2866d"/></g><g fill="#000000"><path d="m91.876 46.026-14.247-14.567a1.75 1.75 0 0 0 -2.5 2.448l13.43 13.731-7.39 17.337-.009.025-17.248 40.47-4.163-10.239a1.75 1.75 0 0 0 -3.242 1.318l2.611 6.419-17.238-16.712 4.668-14.185 4.5 11.069a1.75 1.75 0 1 0 3.242-1.319l-6.06-14.893 5.942-18.628 22.105 15.05a1.75 1.75 0 0 0 1.969-2.893l-22.965-15.634 7.5-23.536 3.6 3.675a1.75 1.75 0 1 0 2.5-2.447l-5.63-5.756a1.75 1.75 0 0 0 -2.236-.223l-24.625 16.764a1.749 1.749 0 0 0 -.7 1.916l8.858 31.738-6.335 19.246a1.749 1.749 0 0 0 .444 1.8l24 23.268a1.751 1.751 0 0 0 1.218.494 1.724 1.724 0 0 0 .175-.009 1.751 1.751 0 0 0 1.268-.752l26.75-39.011a1.744 1.744 0 0 0 .307-.99v-23.75a1.751 1.751 0 0 0 -.499-1.224zm-52.476-10.536 19.393-13.207-6.53 20.485-7.256-4.939a1.75 1.75 0 0 0 -1.969 2.893l8.116 5.525-4.667 14.642zm44.155 32.81 4.634 3.154-15.799 23.046zm1.4-3.281 3.921-9.2v11.87z"/><path d="m70.894 29.578a1.75 1.75 0 1 0 2.5-2.449l-.555-.566a1.75 1.75 0 1 0 -2.5 2.449z"/><path d="m54.5 86.966a1.751 1.751 0 0 0 -.961 2.281l.407 1a1.751 1.751 0 0 0 3.243-1.32l-.408-1a1.751 1.751 0 0 0 -2.281-.961z"/></g></g></svg>